<svg xmlns="http://www.w3.org/2000/svg" xmlns:xlink="http://www.w3.org/1999/xlink" width="50" zoomAndPan="magnify" viewBox="0 0 37.5 37.499999" height="50" preserveAspectRatio="xMidYMid meet" version="1.0"><defs><clipPath id="b36c0ea0ee"><path d="M 0.953125 5 L 36.203125 5 L 36.203125 36.050781 L 0.953125 36.050781 Z M 0.953125 5 " clip-rule="nonzero"/></clipPath><clipPath id="da70303970"><path d="M 6 1.550781 L 15 1.550781 L 15 10 L 6 10 Z M 6 1.550781 " clip-rule="nonzero"/></clipPath><clipPath id="55cb95aca5"><path d="M 22.933594 6.847656 L 29.683594 6.847656 L 29.683594 13.597656 L 22.933594 13.597656 Z M 22.933594 6.847656 " clip-rule="nonzero"/></clipPath></defs><g clip-path="url(#b36c0ea0ee)"><path fill="#000000" d="M 35.609375 17.019531 L 27.972656 17.019531 L 27.972656 15.828125 L 31.5 15.828125 C 32.46875 15.828125 33.261719 15.027344 33.261719 14.042969 L 33.261719 6.90625 C 33.261719 5.921875 32.46875 5.121094 31.5 5.121094 L 20.925781 5.121094 C 19.953125 5.121094 19.164062 5.921875 19.164062 6.90625 L 19.164062 14.042969 C 19.164062 15.027344 19.953125 15.828125 20.925781 15.828125 L 24.449219 15.828125 L 24.449219 17.019531 L 15.640625 17.019531 L 15.640625 16.421875 C 15.640625 13.472656 13.269531 11.070312 10.355469 11.070312 C 7.4375 11.070312 5.066406 13.472656 5.066406 16.421875 L 5.066406 17.019531 L 1.542969 17.019531 C 1.21875 17.019531 0.957031 17.285156 0.957031 17.613281 L 0.957031 19.992188 C 0.957031 20.320312 1.21875 20.585938 1.542969 20.585938 L 2.128906 20.585938 L 2.128906 35.457031 C 2.128906 35.785156 2.394531 36.050781 2.71875 36.050781 L 34.433594 36.050781 C 34.757812 36.050781 35.023438 35.785156 35.023438 35.457031 L 35.023438 20.585938 L 35.609375 20.585938 C 35.933594 20.585938 36.195312 20.320312 36.195312 19.992188 L 36.195312 17.613281 C 36.195312 17.285156 35.933594 17.019531 35.609375 17.019531 Z M 20.339844 14.042969 L 20.339844 6.90625 C 20.339844 6.578125 20.601562 6.3125 20.925781 6.3125 L 31.5 6.3125 C 31.820312 6.3125 32.085938 6.578125 32.085938 6.90625 L 32.085938 14.042969 C 32.085938 14.371094 31.820312 14.636719 31.5 14.636719 L 20.925781 14.636719 C 20.601562 14.636719 20.339844 14.371094 20.339844 14.042969 Z M 25.625 15.828125 L 26.800781 15.828125 L 26.800781 17.019531 L 25.625 17.019531 Z M 6.242188 16.421875 C 6.242188 14.128906 8.085938 12.257812 10.355469 12.257812 C 12.621094 12.257812 14.464844 14.128906 14.464844 16.421875 L 14.464844 17.019531 L 6.242188 17.019531 Z M 33.847656 34.863281 L 3.304688 34.863281 L 3.304688 20.585938 L 33.847656 20.585938 Z M 35.023438 19.398438 L 2.128906 19.398438 L 2.128906 18.207031 L 35.023438 18.207031 Z M 35.023438 19.398438 " fill-opacity="1" fill-rule="nonzero"/></g><g clip-path="url(#da70303970)"><path fill="#000000" d="M 10.355469 9.878906 C 12.621094 9.878906 14.464844 8.011719 14.464844 5.714844 C 14.464844 3.421875 12.621094 1.550781 10.355469 1.550781 C 8.085938 1.550781 6.242188 3.421875 6.242188 5.714844 C 6.242188 8.011719 8.085938 9.878906 10.355469 9.878906 Z M 10.355469 2.742188 C 11.972656 2.742188 13.289062 4.074219 13.289062 5.714844 C 13.289062 7.355469 11.972656 8.691406 10.355469 8.691406 C 8.734375 8.691406 7.417969 7.355469 7.417969 5.714844 C 7.417969 4.074219 8.734375 2.742188 10.355469 2.742188 Z M 10.355469 2.742188 " fill-opacity="1" fill-rule="nonzero"/></g><path fill="#000000" d="M 12.117188 29.507812 L 25.039062 29.507812 C 25.363281 29.507812 25.625 29.242188 25.625 28.914062 L 25.625 24.15625 C 25.625 23.828125 25.363281 23.5625 25.039062 23.5625 L 12.117188 23.5625 C 11.792969 23.5625 11.527344 23.828125 11.527344 24.15625 L 11.527344 28.914062 C 11.527344 29.242188 11.792969 29.507812 12.117188 29.507812 Z M 12.703125 24.75 L 24.449219 24.75 L 24.449219 28.320312 L 12.703125 28.320312 Z M 12.703125 24.75 " fill-opacity="1" fill-rule="nonzero"/><path fill="#000000" d="M 13.878906 25.941406 L 23.273438 25.941406 L 23.273438 27.128906 L 13.878906 27.128906 Z M 13.878906 25.941406 " fill-opacity="1" fill-rule="nonzero"/><path fill="#000000" d="M 24.226562 10.59375 L 24.027344 10.773438 L 24.027344 10.996094 L 25.125 10.996094 L 25.125 10.695312 L 24.542969 10.695312 L 24.542969 10.691406 L 24.683594 10.570312 C 24.910156 10.371094 25.097656 10.164062 25.097656 9.902344 C 25.097656 9.621094 24.90625 9.414062 24.554688 9.414062 C 24.34375 9.414062 24.164062 9.488281 24.046875 9.574219 L 24.148438 9.835938 C 24.230469 9.773438 24.347656 9.707031 24.480469 9.707031 C 24.660156 9.707031 24.734375 9.808594 24.734375 9.933594 C 24.730469 10.117188 24.566406 10.289062 24.226562 10.59375 " fill-opacity="1" fill-rule="nonzero"/><path fill="#000000" d="M 25.644531 10.351562 L 25.644531 10.347656 L 25.851562 10.007812 C 25.90625 9.910156 25.945312 9.820312 25.996094 9.71875 L 26.003906 9.71875 C 25.996094 9.820312 25.992188 9.914062 25.992188 10.007812 L 25.992188 10.351562 Z M 26.335938 10.996094 L 26.335938 10.625 L 26.523438 10.625 L 26.523438 10.351562 L 26.335938 10.351562 L 26.335938 9.441406 L 25.890625 9.441406 L 25.304688 10.386719 L 25.304688 10.625 L 25.992188 10.625 L 25.992188 10.996094 L 26.335938 10.996094 " fill-opacity="1" fill-rule="nonzero"/><path fill="#000000" d="M 26.855469 11.089844 L 27.363281 9.359375 L 27.125 9.359375 L 26.613281 11.089844 L 26.855469 11.089844 " fill-opacity="1" fill-rule="nonzero"/><path fill="#000000" d="M 27.550781 10.996094 L 27.9375 10.996094 L 28.574219 9.671875 L 28.574219 9.441406 L 27.480469 9.441406 L 27.480469 9.742188 L 28.191406 9.742188 L 28.191406 9.746094 L 27.550781 10.996094 " fill-opacity="1" fill-rule="nonzero"/><g clip-path="url(#55cb95aca5)"><path fill="#000000" d="M 29.664062 10.089844 L 29.070312 10.113281 C 29.101562 10.886719 28.804688 11.640625 28.261719 12.1875 C 27.179688 13.269531 25.421875 13.269531 24.34375 12.1875 C 23.261719 11.105469 23.261719 9.34375 24.34375 8.261719 C 25.421875 7.179688 27.179688 7.179688 28.261719 8.261719 L 27.945312 8.578125 L 29 8.578125 L 29 7.523438 L 28.683594 7.839844 C 28.046875 7.203125 27.199219 6.851562 26.300781 6.851562 C 25.402344 6.851562 24.558594 7.203125 23.921875 7.839844 C 23.285156 8.476562 22.933594 9.324219 22.933594 10.222656 C 22.933594 11.125 23.285156 11.972656 23.921875 12.609375 C 24.558594 13.246094 25.402344 13.597656 26.300781 13.597656 C 27.199219 13.597656 28.046875 13.246094 28.683594 12.609375 C 29.019531 12.269531 29.277344 11.875 29.445312 11.429688 C 29.609375 11 29.683594 10.550781 29.664062 10.089844 " fill-opacity="1" fill-rule="nonzero"/></g></svg>