<svg xmlns="http://www.w3.org/2000/svg" xmlns:xlink="http://www.w3.org/1999/xlink" width="50" zoomAndPan="magnify" viewBox="0 0 37.5 37.499999" height="50" preserveAspectRatio="xMidYMid meet" version="1.0"><defs><clipPath id="232957cbc3"><path d="M 6.054688 1.46875 L 31.554688 1.46875 L 31.554688 35.96875 L 6.054688 35.96875 Z M 6.054688 1.46875 " clip-rule="nonzero"/></clipPath></defs><g clip-path="url(#232957cbc3)"><path fill="#000000" d="M 6.472656 1.453125 C 6.253906 1.453125 6.074219 1.632812 6.074219 1.851562 L 6.074219 35.546875 C 6.074219 35.769531 6.253906 35.945312 6.472656 35.945312 L 31.136719 35.945312 C 31.355469 35.945312 31.535156 35.769531 31.535156 35.546875 L 31.535156 1.851562 C 31.535156 1.632812 31.355469 1.453125 31.136719 1.453125 Z M 6.875 2.25 L 30.734375 2.25 C 30.734375 2.25 30.734375 35.148438 30.734375 35.148438 C 30.734375 35.148438 6.875 35.148438 6.875 35.148438 C 6.875 35.148438 6.875 2.25 6.875 2.25 Z M 8.941406 6.355469 C 8.71875 6.355469 8.539062 6.53125 8.539062 6.753906 L 8.539062 33.710938 C 8.539062 33.929688 8.71875 34.109375 8.941406 34.109375 L 24.96875 34.109375 C 25.191406 34.109375 25.371094 33.929688 25.371094 33.710938 L 25.371094 6.753906 C 25.371094 6.53125 25.191406 6.355469 24.96875 6.355469 Z M 9.339844 7.152344 L 24.570312 7.152344 C 24.570312 7.152344 24.570312 33.3125 24.570312 33.3125 C 22.347656 33.3125 11.5625 33.3125 9.339844 33.3125 C 9.339844 30 9.339844 7.152344 9.339844 7.152344 Z M 16.554688 7.976562 L 16.554688 32.484375 C 16.554688 32.703125 16.734375 32.882812 16.957031 32.882812 C 17.175781 32.882812 17.355469 32.703125 17.355469 32.484375 L 17.355469 7.976562 C 17.355469 7.757812 17.175781 7.578125 16.957031 7.578125 C 16.734375 7.578125 16.554688 7.757812 16.554688 7.976562 Z M 30.261719 21.089844 C 30.324219 20.964844 30.316406 20.816406 30.242188 20.699219 C 30.171875 20.582031 30.042969 20.511719 29.902344 20.511719 L 26.203125 20.511719 C 26.0625 20.511719 25.933594 20.582031 25.863281 20.699219 C 25.789062 20.816406 25.78125 20.964844 25.84375 21.089844 L 27.695312 24.765625 C 27.761719 24.898438 27.902344 24.984375 28.054688 24.984375 C 28.203125 24.984375 28.34375 24.898438 28.410156 24.765625 Z M 29.253906 21.308594 L 28.054688 23.695312 C 28.054688 23.695312 26.851562 21.308594 26.851562 21.308594 Z M 25.84375 19.375 C 25.78125 19.496094 25.789062 19.644531 25.863281 19.761719 C 25.933594 19.878906 26.0625 19.949219 26.203125 19.949219 L 29.902344 19.949219 C 30.042969 19.949219 30.171875 19.878906 30.242188 19.761719 C 30.316406 19.644531 30.324219 19.496094 30.261719 19.375 L 28.410156 15.699219 C 28.34375 15.5625 28.203125 15.476562 28.054688 15.476562 C 27.902344 15.476562 27.761719 15.5625 27.695312 15.699219 Z M 26.851562 19.152344 L 28.054688 16.765625 C 28.054688 16.765625 29.253906 19.152344 29.253906 19.152344 Z M 13.257812 2.679688 C 13.035156 2.679688 12.855469 2.855469 12.855469 3.078125 L 12.855469 5.527344 C 12.855469 5.746094 13.035156 5.925781 13.257812 5.925781 L 20.65625 5.925781 C 20.875 5.925781 21.054688 5.746094 21.054688 5.527344 L 21.054688 3.078125 C 21.054688 2.855469 20.875 2.679688 20.65625 2.679688 Z M 13.65625 3.476562 L 20.253906 3.476562 C 20.253906 3.476562 20.253906 5.128906 20.253906 5.128906 C 20.253906 5.128906 13.65625 5.128906 13.65625 5.128906 Z M 13.65625 3.476562 " fill-opacity="1" fill-rule="evenodd"/></g></svg>