<svg xmlns="http://www.w3.org/2000/svg" xmlns:xlink="http://www.w3.org/1999/xlink" width="50" zoomAndPan="magnify" viewBox="0 0 37.5 37.499999" height="50" preserveAspectRatio="xMidYMid meet" version="1.0"><defs><clipPath id="ab2e3931b5"><path d="M 6.160156 2.632812 L 31.660156 2.632812 L 31.660156 34.882812 L 6.160156 34.882812 Z M 6.160156 2.632812 " clip-rule="nonzero"/></clipPath></defs><g clip-path="url(#ab2e3931b5)"><path fill="#000000" d="M 6.667969 32.613281 L 8.710938 32.613281 L 8.710938 33.871094 L 7.945312 33.871094 C 7.664062 33.871094 7.433594 34.097656 7.433594 34.375 C 7.433594 34.652344 7.664062 34.878906 7.945312 34.878906 L 10.496094 34.878906 C 10.773438 34.878906 11.003906 34.652344 11.003906 34.375 C 11.003906 34.097656 10.773438 33.871094 10.496094 33.871094 L 9.730469 33.871094 L 9.730469 32.613281 L 28.089844 32.613281 L 28.089844 33.871094 L 27.324219 33.871094 C 27.042969 33.871094 26.8125 34.097656 26.8125 34.375 C 26.8125 34.652344 27.042969 34.878906 27.324219 34.878906 L 29.875 34.878906 C 30.15625 34.878906 30.382812 34.652344 30.382812 34.375 C 30.382812 34.097656 30.15625 33.871094 29.875 33.871094 L 29.109375 33.871094 L 29.109375 32.613281 L 31.148438 32.613281 C 31.429688 32.613281 31.660156 32.386719 31.660156 32.109375 L 31.660156 30.09375 C 31.660156 30.042969 31.660156 30.019531 31.632812 29.96875 C 31.632812 29.96875 31.632812 29.941406 31.632812 29.941406 C 31.609375 29.894531 31.609375 29.867188 31.582031 29.816406 C 31.558594 29.765625 31.53125 29.742188 31.480469 29.714844 L 29.109375 27.828125 L 29.109375 25.054688 L 31.148438 25.054688 C 31.429688 25.054688 31.660156 24.828125 31.660156 24.550781 L 31.660156 22.539062 C 31.660156 22.488281 31.660156 22.460938 31.632812 22.410156 C 31.632812 22.410156 31.632812 22.386719 31.632812 22.386719 C 31.609375 22.335938 31.609375 22.3125 31.582031 22.261719 C 31.558594 22.210938 31.53125 22.183594 31.480469 22.160156 L 29.109375 20.269531 L 29.109375 17.5 L 31.148438 17.5 C 31.429688 17.5 31.660156 17.273438 31.660156 16.996094 L 31.660156 14.980469 C 31.660156 14.929688 31.660156 14.90625 31.632812 14.855469 C 31.632812 14.855469 31.632812 14.828125 31.632812 14.828125 C 31.609375 14.777344 31.609375 14.753906 31.582031 14.703125 C 31.558594 14.652344 31.53125 14.628906 31.480469 14.601562 L 29.109375 12.714844 L 29.109375 9.941406 L 31.148438 9.941406 C 31.429688 9.941406 31.660156 9.714844 31.660156 9.4375 L 31.660156 7.421875 C 31.660156 7.371094 31.660156 7.347656 31.632812 7.296875 C 31.632812 7.296875 31.632812 7.273438 31.632812 7.273438 C 31.609375 7.222656 31.609375 7.195312 31.582031 7.144531 C 31.558594 7.097656 31.53125 7.070312 31.480469 7.046875 L 29.109375 5.15625 L 29.109375 3.140625 C 29.109375 2.863281 28.878906 2.636719 28.597656 2.636719 L 9.21875 2.636719 C 8.9375 2.636719 8.710938 2.863281 8.710938 3.140625 L 8.710938 5.15625 L 6.363281 7.019531 C 6.335938 7.046875 6.285156 7.097656 6.261719 7.121094 C 6.234375 7.144531 6.210938 7.195312 6.210938 7.246094 C 6.210938 7.246094 6.210938 7.273438 6.210938 7.273438 C 6.210938 7.324219 6.183594 7.347656 6.183594 7.398438 L 6.183594 9.414062 C 6.183594 9.691406 6.414062 9.917969 6.695312 9.917969 L 8.734375 9.917969 L 8.734375 12.6875 L 6.390625 14.550781 C 6.363281 14.578125 6.3125 14.628906 6.285156 14.652344 C 6.261719 14.679688 6.234375 14.726562 6.234375 14.777344 C 6.234375 14.777344 6.234375 14.804688 6.234375 14.804688 C 6.234375 14.855469 6.210938 14.878906 6.210938 14.929688 L 6.210938 16.945312 C 6.210938 17.222656 6.441406 17.449219 6.71875 17.449219 L 8.761719 17.449219 L 8.761719 20.21875 L 6.414062 22.082031 C 6.390625 22.109375 6.335938 22.160156 6.3125 22.183594 C 6.285156 22.210938 6.261719 22.261719 6.261719 22.3125 C 6.261719 22.3125 6.261719 22.335938 6.261719 22.335938 C 6.261719 22.386719 6.234375 22.410156 6.234375 22.460938 L 6.234375 24.476562 C 6.234375 24.753906 6.464844 24.980469 6.746094 24.980469 L 8.785156 24.980469 L 8.785156 27.75 L 6.441406 29.617188 C 6.414062 29.640625 6.363281 29.691406 6.335938 29.714844 C 6.3125 29.742188 6.285156 29.792969 6.285156 29.84375 C 6.285156 29.84375 6.285156 29.867188 6.285156 29.867188 C 6.285156 29.917969 6.261719 29.941406 6.261719 29.992188 L 6.261719 32.007812 C 6.160156 32.386719 6.390625 32.613281 6.667969 32.613281 Z M 9.730469 3.644531 L 28.089844 3.644531 L 28.089844 4.902344 L 9.730469 4.902344 Z M 7.179688 8.933594 L 7.179688 7.925781 L 30.640625 7.925781 L 30.640625 8.933594 Z M 28.089844 9.941406 L 28.089844 12.460938 L 9.730469 12.460938 L 9.730469 9.941406 Z M 7.179688 16.492188 L 7.179688 15.484375 L 30.640625 15.484375 L 30.640625 16.492188 Z M 28.089844 17.5 L 28.089844 20.019531 L 9.730469 20.019531 L 9.730469 17.5 Z M 7.179688 24.046875 L 7.179688 23.042969 L 30.640625 23.042969 L 30.640625 24.046875 Z M 28.089844 25.054688 L 28.089844 27.574219 L 9.730469 27.574219 L 9.730469 25.054688 Z M 7.179688 30.597656 L 30.640625 30.597656 L 30.640625 31.605469 L 7.179688 31.605469 Z M 7.179688 30.597656 " fill-opacity="1" fill-rule="nonzero"/></g></svg>