<svg xmlns="http://www.w3.org/2000/svg" xmlns:xlink="http://www.w3.org/1999/xlink" width="50" zoomAndPan="magnify" viewBox="0 0 37.5 37.499999" height="50" preserveAspectRatio="xMidYMid meet" version="1.0"><defs><clipPath id="e8af470049"><path d="M 2.476562 14 L 27 14 L 27 34.5 L 2.476562 34.5 Z M 2.476562 14 " clip-rule="nonzero"/></clipPath><clipPath id="eed2558e7b"><path d="M 23 3 L 34.726562 3 L 34.726562 34.5 L 23 34.5 Z M 23 3 " clip-rule="nonzero"/></clipPath></defs><g clip-path="url(#e8af470049)"><path fill="#000000" d="M 2.742188 32.925781 L 3 32.925781 L 3 33.449219 C 3 34.027344 3.46875 34.5 4.039062 34.5 L 6.121094 34.5 C 6.695312 34.5 7.160156 34.027344 7.160156 33.449219 L 7.160156 32.925781 L 10.023438 32.925781 C 10.09375 32.925781 10.160156 32.898438 10.203125 32.847656 L 10.644531 32.398438 L 18.753906 32.398438 L 19.195312 32.847656 C 19.246094 32.898438 19.3125 32.925781 19.375 32.925781 L 22.238281 32.925781 L 22.238281 33.449219 C 22.238281 34.027344 22.707031 34.5 23.277344 34.5 L 25.359375 34.5 C 25.929688 34.5 26.398438 34.027344 26.398438 33.449219 L 26.398438 32.925781 L 26.65625 32.925781 C 26.800781 32.925781 26.917969 32.808594 26.917969 32.664062 L 26.917969 25.058594 C 26.917969 23.808594 26.371094 22.628906 25.421875 21.828125 L 23.972656 20.609375 L 24.394531 20.320312 L 25.6875 20.320312 C 26.230469 20.320312 26.664062 19.878906 26.664062 19.335938 L 26.664062 19.203125 C 26.664062 18.660156 26.230469 18.21875 25.6875 18.21875 L 25.167969 18.21875 C 24.558594 18.21875 24.0625 18.71875 24.0625 19.335938 L 24.0625 19.917969 L 23.660156 20.1875 L 21.847656 15.796875 C 21.398438 14.722656 20.363281 14.019531 19.207031 14.019531 L 10.585938 14.019531 C 9.496094 14.019531 8.511719 14.628906 8.027344 15.613281 L 5.757812 20.195312 L 5.339844 19.910156 L 5.339844 19.339844 C 5.339844 18.722656 4.847656 18.226562 4.234375 18.226562 L 3.714844 18.226562 C 3.175781 18.226562 2.742188 18.664062 2.742188 19.210938 L 2.742188 19.339844 C 2.742188 19.886719 3.175781 20.324219 3.714844 20.324219 L 5.003906 20.324219 L 5.425781 20.613281 L 3.976562 21.828125 C 3.027344 22.628906 2.480469 23.804688 2.480469 25.058594 L 2.480469 32.664062 C 2.480469 32.808594 2.597656 32.925781 2.742188 32.925781 Z M 10.28125 31.085938 C 10.28125 31.230469 10.164062 31.351562 10.023438 31.351562 L 3.78125 31.351562 C 3.636719 31.351562 3.519531 31.230469 3.519531 31.085938 L 3.519531 30.039062 C 3.519531 29.894531 3.636719 29.773438 3.78125 29.773438 L 10.023438 29.773438 C 10.164062 29.773438 10.28125 29.894531 10.28125 30.039062 Z M 18.082031 30.824219 L 11.320312 30.824219 L 11.320312 29.25 L 18.082031 29.25 Z M 25.882812 31.085938 C 25.882812 31.230469 25.765625 31.351562 25.625 31.351562 L 19.382812 31.351562 C 19.242188 31.351562 19.125 31.230469 19.125 31.085938 L 19.125 30.039062 C 19.125 29.894531 19.242188 29.773438 19.382812 29.773438 L 25.625 29.773438 C 25.765625 29.773438 25.882812 29.894531 25.882812 30.039062 Z M 8.496094 15.855469 C 8.890625 15.050781 9.695312 14.550781 10.585938 14.550781 L 19.207031 14.550781 C 20.15625 14.550781 21.003906 15.121094 21.367188 16.007812 L 23.152344 20.324219 L 22.179688 20.324219 L 20.949219 16.199219 C 20.75 15.527344 20.152344 15.074219 19.453125 15.074219 L 10.378906 15.074219 C 9.734375 15.074219 9.171875 15.460938 8.929688 16.066406 L 7.238281 20.324219 L 6.285156 20.324219 Z M 4.308594 22.234375 L 5.953125 20.851562 L 23.445312 20.851562 L 25.089844 22.234375 C 25.5 22.582031 25.824219 23.003906 26.046875 23.476562 L 19.492188 23.476562 L 17.492188 21.453125 C 17.386719 21.347656 17.226562 21.347656 17.121094 21.453125 C 17.015625 21.558594 17.015625 21.722656 17.121094 21.828125 L 18.757812 23.480469 L 10.652344 23.480469 L 12.289062 21.828125 C 12.394531 21.722656 12.394531 21.558594 12.289062 21.453125 C 12.1875 21.347656 12.023438 21.347656 11.921875 21.453125 L 9.910156 23.476562 L 3.351562 23.476562 C 3.578125 23.003906 3.898438 22.578125 4.308594 22.234375 Z M 3 25.058594 C 3 24.695312 3.054688 24.339844 3.15625 24 L 26.253906 24 C 26.351562 24.339844 26.410156 24.695312 26.410156 25.058594 L 26.410156 28.726562 L 3 28.726562 Z M 3 25.058594 " fill-opacity="1" fill-rule="nonzero"/></g><path fill="#000000" d="M 19.382812 25.574219 L 10.023438 25.574219 C 9.878906 25.574219 9.761719 25.695312 9.761719 25.835938 L 9.761719 25.96875 C 9.761719 27.195312 10.757812 28.199219 11.972656 28.199219 L 17.433594 28.199219 C 18.648438 28.199219 19.644531 27.195312 19.644531 25.96875 L 19.644531 25.835938 C 19.644531 25.695312 19.527344 25.574219 19.382812 25.574219 Z M 19.382812 25.574219 " fill-opacity="1" fill-rule="nonzero"/><path fill="#000000" d="M 8.507812 25.515625 C 8.265625 24.914062 7.699219 24.523438 7.058594 24.523438 L 3.78125 24.523438 C 3.703125 24.523438 3.632812 24.558594 3.578125 24.625 C 3.527344 24.6875 3.507812 24.761719 3.527344 24.839844 L 3.839844 26.410156 C 3.984375 27.144531 4.625 27.675781 5.367188 27.675781 L 8.980469 27.675781 C 9.066406 27.675781 9.152344 27.628906 9.195312 27.558594 C 9.242188 27.484375 9.253906 27.394531 9.222656 27.3125 Z M 8.507812 25.515625 " fill-opacity="1" fill-rule="nonzero"/><path fill="#000000" d="M 25.625 24.523438 L 22.339844 24.523438 C 21.699219 24.523438 21.132812 24.914062 20.890625 25.515625 L 20.175781 27.3125 C 20.144531 27.394531 20.15625 27.484375 20.203125 27.558594 C 20.246094 27.628906 20.332031 27.675781 20.417969 27.675781 L 24.03125 27.675781 C 24.773438 27.675781 25.417969 27.144531 25.558594 26.410156 L 25.871094 24.839844 C 25.882812 24.761719 25.863281 24.683594 25.820312 24.625 C 25.773438 24.566406 25.703125 24.523438 25.625 24.523438 Z M 25.625 24.523438 " fill-opacity="1" fill-rule="nonzero"/><g clip-path="url(#eed2558e7b)"><path fill="#000000" d="M 29.265625 3 C 26.253906 3 23.804688 5.472656 23.804688 8.511719 C 23.804688 11.28125 25.839844 13.585938 28.484375 13.964844 L 28.484375 28.902344 C 27.867188 29.199219 27.445312 29.828125 27.445312 30.5625 L 27.445312 34.238281 C 27.445312 34.382812 27.5625 34.5 27.703125 34.5 L 30.824219 34.5 C 30.96875 34.5 31.085938 34.382812 31.085938 34.238281 L 31.085938 30.5625 C 31.085938 29.835938 30.664062 29.199219 30.046875 28.902344 L 30.046875 13.964844 C 32.691406 13.585938 34.726562 11.28125 34.726562 8.511719 C 34.726562 5.472656 32.273438 3 29.265625 3 Z M 29.523438 28.746094 C 29.441406 28.730469 29.355469 28.726562 29.265625 28.726562 C 29.175781 28.726562 29.089844 28.730469 29.003906 28.746094 L 29.003906 14.019531 C 29.089844 14.023438 29.179688 14.023438 29.265625 14.023438 C 29.347656 14.023438 29.441406 14.023438 29.523438 14.019531 Z M 29.265625 12.449219 C 27.113281 12.449219 25.363281 10.683594 25.363281 8.511719 C 25.363281 6.339844 27.113281 4.574219 29.265625 4.574219 C 31.417969 4.574219 33.164062 6.339844 33.164062 8.511719 C 33.164062 10.683594 31.417969 12.449219 29.265625 12.449219 Z M 29.265625 12.449219 " fill-opacity="1" fill-rule="nonzero"/></g><path fill="#000000" d="M 29.785156 5.625 L 28.484375 5.625 C 28.054688 5.625 27.703125 5.980469 27.703125 6.414062 L 27.703125 11.136719 C 27.703125 11.28125 27.820312 11.398438 27.964844 11.398438 L 29.003906 11.398438 C 29.148438 11.398438 29.265625 11.28125 29.265625 11.136719 L 29.265625 9.300781 L 29.785156 9.300781 C 30.785156 9.300781 31.605469 8.472656 31.605469 7.460938 C 31.605469 6.453125 30.785156 5.625 29.785156 5.625 Z M 29.785156 8.25 L 29.003906 8.25 C 28.863281 8.25 28.746094 8.132812 28.746094 7.988281 L 28.746094 6.9375 C 28.746094 6.792969 28.863281 6.675781 29.003906 6.675781 L 29.785156 6.675781 C 30.214844 6.675781 30.566406 7.03125 30.566406 7.460938 C 30.566406 7.894531 30.214844 8.25 29.785156 8.25 Z M 29.785156 8.25 " fill-opacity="1" fill-rule="nonzero"/></svg>