<svg xmlns="http://www.w3.org/2000/svg" xmlns:xlink="http://www.w3.org/1999/xlink" width="50" zoomAndPan="magnify" viewBox="0 0 37.5 37.499999" height="50" preserveAspectRatio="xMidYMid meet" version="1.0"><defs><clipPath id="769bcd402c"><path d="M 2.574219 3.101562 L 34.824219 3.101562 L 34.824219 34.601562 L 2.574219 34.601562 Z M 2.574219 3.101562 " clip-rule="nonzero"/></clipPath></defs><g clip-path="url(#769bcd402c)"><path fill="#000000" d="M 34.824219 3.671875 L 34.820312 3.613281 C 34.785156 3.328125 34.53125 3.121094 34.246094 3.152344 L 14.601562 5.488281 C 14.335938 5.511719 14.125 5.734375 14.125 6.007812 L 14.125 18.777344 C 13.832031 18.871094 13.570312 19.039062 13.363281 19.261719 C 13.042969 19.601562 12.839844 20.066406 12.839844 20.574219 L 12.84375 20.59375 C 10.582031 20.976562 8.554688 22.074219 7 23.644531 C 5.042969 25.621094 3.828125 28.347656 3.828125 31.34375 C 3.828125 31.425781 3.828125 31.519531 3.832031 31.628906 C 3.511719 31.675781 3.226562 31.828125 3.003906 32.046875 C 2.738281 32.316406 2.574219 32.691406 2.574219 33.101562 C 2.574219 33.511719 2.738281 33.886719 3.007812 34.15625 C 3.273438 34.425781 3.644531 34.59375 4.050781 34.59375 L 34.304688 34.59375 C 34.59375 34.59375 34.824219 34.359375 34.824219 34.070312 Z M 33.785156 5.484375 L 23.472656 5.484375 L 33.789062 4.261719 L 33.789062 5.484375 Z M 14.109375 19.976562 L 14.113281 19.976562 C 14.25 19.832031 14.4375 19.746094 14.644531 19.746094 L 14.648438 19.746094 C 14.855469 19.746094 15.042969 19.832031 15.179688 19.976562 L 15.199219 20 C 15.308594 20.125 15.382812 20.289062 15.40625 20.472656 C 15.160156 20.453125 14.914062 20.445312 14.664062 20.445312 L 14.625 20.445312 C 14.375 20.445312 14.132812 20.453125 13.886719 20.472656 C 13.90625 20.277344 13.988281 20.105469 14.109375 19.976562 Z M 7.734375 24.386719 C 9.503906 22.601562 11.941406 21.492188 14.625 21.492188 L 14.664062 21.492188 C 17.347656 21.492188 19.789062 22.601562 21.558594 24.386719 C 23.328125 26.171875 24.425781 28.636719 24.425781 31.347656 L 24.421875 31.609375 L 4.867188 31.609375 L 4.867188 31.347656 C 4.867188 28.636719 5.964844 26.171875 7.734375 24.386719 Z M 3.738281 33.417969 C 3.660156 33.335938 3.609375 33.222656 3.609375 33.101562 C 3.609375 32.980469 3.660156 32.867188 3.738281 32.789062 C 3.820312 32.707031 3.929688 32.65625 4.050781 32.65625 L 25.238281 32.65625 C 25.359375 32.65625 25.46875 32.707031 25.550781 32.789062 C 25.628906 32.867188 25.679688 32.980469 25.679688 33.101562 C 25.679688 33.222656 25.628906 33.335938 25.550781 33.417969 C 25.472656 33.496094 25.359375 33.546875 25.238281 33.546875 L 4.050781 33.546875 C 3.929688 33.546875 3.820312 33.496094 3.738281 33.417969 Z M 33.785156 33.546875 L 26.648438 33.546875 C 26.691406 33.40625 26.714844 33.257812 26.714844 33.101562 C 26.714844 32.691406 26.550781 32.316406 26.28125 32.046875 C 26.0625 31.828125 25.777344 31.675781 25.457031 31.628906 C 25.457031 31.519531 25.460938 31.421875 25.460938 31.34375 C 25.460938 30.34375 25.324219 29.371094 25.070312 28.449219 L 30.269531 28.449219 C 30.554688 28.449219 30.789062 28.214844 30.789062 27.925781 C 30.789062 27.636719 30.554688 27.402344 30.269531 27.402344 L 24.726562 27.402344 C 24.515625 26.855469 24.261719 26.332031 23.96875 25.832031 L 30.269531 25.832031 C 30.554688 25.832031 30.789062 25.597656 30.789062 25.308594 C 30.789062 25.019531 30.554688 24.785156 30.269531 24.785156 L 23.273438 24.785156 C 22.96875 24.382812 22.640625 24 22.289062 23.644531 C 22.144531 23.496094 21.992188 23.351562 21.835938 23.210938 L 30.269531 23.210938 C 30.554688 23.210938 30.789062 22.976562 30.789062 22.6875 C 30.789062 22.402344 30.554688 22.164062 30.269531 22.164062 L 20.472656 22.164062 C 19.269531 21.386719 17.90625 20.839844 16.445312 20.59375 L 16.445312 20.570312 C 16.445312 20.078125 16.257812 19.628906 15.957031 19.289062 L 15.925781 19.257812 C 15.714844 19.035156 15.453125 18.867188 15.160156 18.773438 L 15.160156 6.53125 L 33.785156 6.53125 Z M 21.074219 14.226562 C 21.277344 14.429688 21.605469 14.429688 21.808594 14.226562 L 22.5 13.527344 L 24.050781 15.097656 L 20.847656 18.332031 C 20.644531 18.535156 20.644531 18.867188 20.847656 19.070312 C 21.050781 19.277344 21.378906 19.277344 21.578125 19.070312 L 24.785156 15.835938 L 27.988281 19.070312 C 28.191406 19.277344 28.519531 19.277344 28.722656 19.070312 C 28.925781 18.867188 28.925781 18.535156 28.722656 18.332031 L 25.519531 15.097656 L 27.121094 13.476562 C 27.488281 13.691406 27.914062 13.777344 28.347656 13.742188 C 28.929688 13.695312 29.527344 13.429688 29.996094 12.953125 C 30.46875 12.476562 30.734375 11.875 30.78125 11.289062 C 30.828125 10.675781 30.640625 10.074219 30.199219 9.628906 L 30.167969 9.597656 C 29.734375 9.175781 29.152344 8.996094 28.554688 9.042969 C 27.972656 9.089844 27.378906 9.359375 26.90625 9.835938 C 26.433594 10.308594 26.171875 10.910156 26.125 11.5 C 26.089844 11.9375 26.175781 12.367188 26.386719 12.738281 L 24.785156 14.359375 L 23.230469 12.789062 L 23.921875 12.09375 C 24.125 11.886719 24.125 11.554688 23.921875 11.351562 L 21.160156 8.5625 C 20.957031 8.355469 20.628906 8.355469 20.425781 8.5625 C 20.222656 8.765625 20.222656 9.097656 20.425781 9.300781 L 22.824219 11.722656 L 22.5 12.050781 L 20.101562 9.628906 C 19.898438 9.425781 19.570312 9.425781 19.367188 9.628906 C 19.164062 9.835938 19.164062 10.164062 19.367188 10.371094 L 21.765625 12.789062 L 21.441406 13.117188 L 19.042969 10.699219 C 18.839844 10.492188 18.511719 10.492188 18.3125 10.699219 C 18.109375 10.902344 18.109375 11.234375 18.3125 11.4375 Z M 27.160156 11.578125 C 27.1875 11.230469 27.347656 10.867188 27.640625 10.574219 C 27.933594 10.277344 28.292969 10.113281 28.636719 10.085938 C 28.945312 10.0625 29.234375 10.144531 29.449219 10.34375 L 29.46875 10.367188 C 29.683594 10.582031 29.773438 10.886719 29.746094 11.207031 C 29.71875 11.554688 29.558594 11.917969 29.265625 12.210938 C 28.972656 12.507812 28.613281 12.671875 28.269531 12.699219 C 27.957031 12.722656 27.660156 12.632812 27.445312 12.425781 C 27.441406 12.425781 27.441406 12.421875 27.4375 12.417969 C 27.433594 12.414062 27.429688 12.410156 27.425781 12.410156 C 27.222656 12.195312 27.132812 11.894531 27.160156 11.578125 Z M 27.160156 11.578125 " fill-opacity="1" fill-rule="nonzero"/></g></svg>