<svg xmlns="http://www.w3.org/2000/svg" xmlns:xlink="http://www.w3.org/1999/xlink" width="50" zoomAndPan="magnify" viewBox="0 0 37.5 37.499999" height="50" preserveAspectRatio="xMidYMid meet" version="1.0"><defs><clipPath id="c804c61d43"><path d="M 1.785156 8.085938 L 35.535156 8.085938 L 35.535156 29.085938 L 1.785156 29.085938 Z M 1.785156 8.085938 " clip-rule="nonzero"/></clipPath><clipPath id="9dcd816bb0"><path d="M 18 11 L 24.441406 11 L 24.441406 15 L 18 15 Z M 18 11 " clip-rule="nonzero"/></clipPath><clipPath id="f0cad0426a"><path d="M 14 13 L 24.441406 13 L 24.441406 21 L 14 21 Z M 14 13 " clip-rule="nonzero"/></clipPath></defs><g clip-path="url(#c804c61d43)"><path fill="#1a1a1a" d="M 2.742188 8.082031 C 2.21875 8.082031 1.800781 8.5 1.800781 9.015625 L 1.800781 25.507812 C 1.800781 26.027344 2.21875 26.441406 2.742188 26.441406 L 17.003906 26.441406 C 16.632812 26.992188 16.214844 27.691406 16.144531 28.167969 L 14.445312 28.167969 C 14.375 28.167969 14.320312 28.222656 14.320312 28.289062 L 14.320312 28.960938 C 14.320312 29.03125 14.375 29.085938 14.445312 29.085938 L 22.878906 29.085938 C 22.949219 29.085938 23.003906 29.03125 23.003906 28.960938 L 23.003906 28.289062 C 23.003906 28.222656 22.949219 28.167969 22.878906 28.167969 L 21.175781 28.167969 C 21.105469 27.691406 20.691406 26.992188 20.320312 26.441406 L 34.582031 26.441406 C 35.101562 26.441406 35.523438 26.027344 35.523438 25.507812 L 35.523438 9.015625 C 35.523438 8.5 35.101562 8.082031 34.582031 8.082031 Z M 2.558594 9.078125 L 34.761719 9.078125 L 34.761719 25.445312 L 2.558594 25.445312 Z M 2.558594 9.078125 " fill-opacity="1" fill-rule="nonzero"/></g><g clip-path="url(#9dcd816bb0)"><path fill="#000000" d="M 18.886719 11.242188 C 18.71875 11.292969 18.554688 11.359375 18.398438 11.429688 L 18.546875 11.859375 C 18.699219 11.789062 18.859375 11.726562 19.023438 11.675781 C 21.078125 11.054688 23.300781 12.335938 23.984375 14.542969 C 23.996094 14.570312 24.003906 14.597656 24.011719 14.628906 L 24.410156 14.496094 C 24.402344 14.472656 24.394531 14.445312 24.386719 14.421875 C 23.625 11.972656 21.164062 10.550781 18.886719 11.242188 Z M 18.886719 11.242188 " fill-opacity="1" fill-rule="nonzero"/></g><path fill="#000000" d="M 19.121094 12.375 C 18.996094 12.414062 18.871094 12.464844 18.75 12.515625 L 18.886719 12.914062 C 19.003906 12.859375 19.121094 12.8125 19.246094 12.777344 C 20.804688 12.304688 22.378906 13.234375 22.898438 14.910156 C 22.90625 14.929688 22.914062 14.953125 22.917969 14.972656 L 23.3125 14.84375 C 23.304688 14.824219 23.300781 14.808594 23.292969 14.789062 C 22.71875 12.933594 20.851562 11.851562 19.121094 12.375 Z M 19.121094 12.375 " fill-opacity="1" fill-rule="nonzero"/><path fill="#000000" d="M 19.335938 13.414062 C 19.246094 13.441406 19.15625 13.476562 19.074219 13.511719 L 19.203125 13.894531 C 19.285156 13.855469 19.371094 13.824219 19.457031 13.796875 C 20.582031 13.523438 21.460938 14.046875 21.886719 15.25 C 21.894531 15.265625 21.898438 15.28125 21.902344 15.292969 L 22.308594 15.164062 C 22.304688 15.152344 22.300781 15.136719 22.296875 15.125 C 21.886719 13.808594 20.5625 13.042969 19.335938 13.414062 Z M 19.335938 13.414062 " fill-opacity="1" fill-rule="nonzero"/><path fill="#000000" d="M 16.824219 19.597656 C 16.460938 20.738281 16.125 21.875 15.53125 23.011719 C 17.679688 23.007812 18.132812 23 20.28125 22.996094 C 19.894531 22.265625 19.5625 21.460938 19.316406 20.726562 C 18.417969 20.574219 17.59375 20.25 16.824219 19.597656 Z M 16.96875 20.238281 L 17.308594 20.46875 C 17.011719 21.527344 16.472656 22.417969 16.058594 22.761719 C 16.386719 21.964844 16.632812 21.410156 16.96875 20.238281 Z M 16.96875 20.238281 " fill-opacity="1" fill-rule="nonzero"/><g clip-path="url(#f0cad0426a)"><path fill="#000000" d="M 14.925781 13.933594 C 14.601562 16.183594 15.710938 18.484375 17.863281 19.609375 C 20.011719 20.730469 22.558594 20.335938 24.257812 18.808594 Z M 15.402344 14.871094 L 16.210938 15.320312 C 16.238281 16.632812 16.574219 17.367188 17.039062 18.402344 C 16.074219 17.46875 15.425781 16.335938 15.402344 14.871094 Z M 15.402344 14.871094 " fill-opacity="1" fill-rule="nonzero"/></g><path fill="#000000" d="M 19.792969 15.5 L 20.203125 15.710938 L 19.671875 16.710938 L 19.261719 16.5 Z M 19.792969 15.5 " fill-opacity="1" fill-rule="nonzero"/><path fill="#000000" d="M 20.476562 15.734375 C 20.335938 15.992188 20.035156 16.101562 19.800781 15.980469 C 19.5625 15.859375 19.484375 15.550781 19.621094 15.289062 C 19.757812 15.03125 20.0625 14.921875 20.296875 15.042969 C 20.53125 15.164062 20.613281 15.472656 20.476562 15.734375 Z M 20.476562 15.734375 " fill-opacity="1" fill-rule="nonzero"/></svg>